<?xml version="1.0" encoding="UTF-8" standalone="no"?>
<!DOCTYPE svg PUBLIC "-//W3C//DTD SVG 1.1//EN"
 "http://www.w3.org/Graphics/SVG/1.1/DTD/svg11.dtd">
<!-- Generated by graphviz version 2.40.1 (20161225.0304)
 -->
<!-- Title: G Pages: 1 -->
<svg width="780pt" height="710pt"
 viewBox="0.00 0.00 780.00 710.00" xmlns="http://www.w3.org/2000/svg" xmlns:xlink="http://www.w3.org/1999/xlink">
<g id="graph0" class="graph" transform="scale(1 1) rotate(0) translate(4 706)">
<title>G</title>
<polygon fill="#ffffff" stroke="transparent" points="-4,4 -4,-706 776,-706 776,4 -4,4"/>
<!-- A0 -->
<g id="node1" class="node">
<title>A0</title>
<polygon fill="none" stroke="#000000" points="371,-670 371,-702 564,-702 564,-670 371,-670"/>
<text text-anchor="start" x="442.354" y="-683" font-family="Helvetica,sans-Serif" font-size="10.00" fill="#000000">+DueDates</text>
<polygon fill="none" stroke="#000000" points="371,-638 371,-670 564,-670 564,-638 371,-638"/>
<text text-anchor="start" x="393.449" y="-651" font-family="Helvetica,sans-Serif" font-size="10.00" fill="#000000">+sortedList:SortedList&lt;DueDate&gt;</text>
<polygon fill="none" stroke="#000000" points="371,-606 371,-638 564,-638 564,-606 371,-606"/>
<text text-anchor="start" x="380.971" y="-619" font-family="Helvetica,sans-Serif" font-size="10.00" fill="#000000">+Remove(name:string,Time:DateTime)</text>
<polygon fill="none" stroke="#000000" points="371,-574 371,-606 564,-606 564,-574 371,-574"/>
<text text-anchor="start" x="464.171" y="-587" font-family="Helvetica,sans-Serif" font-size="10.00" fill="#000000">()</text>
</g>
<!-- A1 -->
<g id="node2" class="node">
<title>A1</title>
<polygon fill="none" stroke="#000000" points="393,-492 393,-524 542,-524 542,-492 393,-492"/>
<text text-anchor="start" x="440.13" y="-505" font-family="Helvetica,sans-Serif" font-size="10.00" fill="#000000">+A:DueDate</text>
<polygon fill="none" stroke="#000000" points="393,-436 393,-492 542,-492 542,-436 393,-436"/>
<text text-anchor="start" x="438.4655" y="-473" font-family="Helvetica,sans-Serif" font-size="10.00" fill="#000000">+name:string</text>
<text text-anchor="start" x="430.417" y="-461" font-family="Helvetica,sans-Serif" font-size="10.00" fill="#000000">+Time:DateTime</text>
<text text-anchor="start" x="442.916" y="-449" font-family="Helvetica,sans-Serif" font-size="10.00" fill="#000000">+priority:int</text>
<polygon fill="none" stroke="#000000" points="393,-380 393,-436 542,-436 542,-380 393,-380"/>
<text text-anchor="start" x="436.246" y="-417" font-family="Helvetica,sans-Serif" font-size="10.00" fill="#000000">+SetName():a</text>
<text text-anchor="start" x="427.913" y="-405" font-family="Helvetica,sans-Serif" font-size="10.00" fill="#000000">+SetDateTime():a</text>
<text text-anchor="start" x="434.0275" y="-393" font-family="Helvetica,sans-Serif" font-size="10.00" fill="#000000">+SetPriority():a</text>
<polygon fill="none" stroke="#000000" points="393,-336 393,-380 542,-380 542,-336 393,-336"/>
<text text-anchor="start" x="464.171" y="-361" font-family="Helvetica,sans-Serif" font-size="10.00" fill="#000000">()</text>
<text text-anchor="start" x="402.503" y="-349" font-family="Helvetica,sans-Serif" font-size="10.00" fill="#000000">(name:string,Time:DateTime)</text>
</g>
<!-- A0&#45;&gt;A1 -->
<g id="edge1" class="edge">
<title>A0&#45;&gt;A1</title>
<path fill="none" stroke="#000000" d="M467,-573.8959C467,-558.1396 467,-540.9433 467,-524.0967"/>
<text text-anchor="middle" x="475.4524" y="-539.2229" font-family="Helvetica,sans-Serif" font-size="10.00" fill="#000000">0..*</text>
<text text-anchor="middle" x="458.5476" y="-552.7698" font-family="Helvetica,sans-Serif" font-size="10.00" fill="#000000">1</text>
</g>
<!-- A2 -->
<g id="node3" class="node">
<title>A2</title>
<polygon fill="none" stroke="#000000" points="64,-242 64,-274 154,-274 154,-242 64,-242"/>
<text text-anchor="start" x="86.3545" y="-255" font-family="Helvetica,sans-Serif" font-size="10.00" fill="#000000">+Deadline</text>
<polygon fill="none" stroke="#000000" points="64,-222 64,-242 154,-242 154,-222 64,-222"/>
<polygon fill="none" stroke="#000000" points="64,-166 64,-222 154,-222 154,-166 64,-166"/>
<text text-anchor="start" x="81.915" y="-203" font-family="Helvetica,sans-Serif" font-size="10.00" fill="#000000">+SetName()</text>
<text text-anchor="start" x="73.582" y="-191" font-family="Helvetica,sans-Serif" font-size="10.00" fill="#000000">+SetDateTime()</text>
<text text-anchor="start" x="79.6965" y="-179" font-family="Helvetica,sans-Serif" font-size="10.00" fill="#000000">+SetPriority()</text>
<polygon fill="none" stroke="#000000" points="64,-134 64,-166 154,-166 154,-134 64,-134"/>
<text text-anchor="start" x="105.671" y="-147" font-family="Helvetica,sans-Serif" font-size="10.00" fill="#000000">()</text>
</g>
<!-- A1&#45;&gt;A2 -->
<g id="edge2" class="edge">
<title>A1&#45;&gt;A2</title>
<path fill="none" stroke="#000000" stroke-dasharray="5,2" d="M384.2757,-341.5433C381.8635,-339.6336 379.4363,-337.7818 377,-336 336.2484,-306.1966 320.2995,-308.2912 275,-286 234.0457,-265.847 187.4505,-242.8216 154.073,-226.3111"/>
<polygon fill="#000000" stroke="#000000" points="392.4119,-348.2414 381.8314,-345.3598 388.5518,-345.0635 384.6916,-341.8856 384.6916,-341.8856 384.6916,-341.8856 388.5518,-345.0635 387.5517,-338.4114 392.4119,-348.2414 392.4119,-348.2414"/>
</g>
<!-- A3 -->
<g id="node4" class="node">
<title>A3</title>
<polygon fill="none" stroke="#000000" points="284,-254 284,-286 374,-286 374,-254 284,-254"/>
<text text-anchor="start" x="308.299" y="-267" font-family="Helvetica,sans-Serif" font-size="10.00" fill="#000000">+Meeting</text>
<polygon fill="none" stroke="#000000" points="284,-222 284,-254 374,-254 374,-222 284,-222"/>
<text text-anchor="start" x="295.242" y="-235" font-family="Helvetica,sans-Serif" font-size="10.00" fill="#000000">+location:string</text>
<polygon fill="none" stroke="#000000" points="284,-154 284,-222 374,-222 374,-154 284,-154"/>
<text text-anchor="start" x="301.915" y="-203" font-family="Helvetica,sans-Serif" font-size="10.00" fill="#000000">+SetName()</text>
<text text-anchor="start" x="293.582" y="-191" font-family="Helvetica,sans-Serif" font-size="10.00" fill="#000000">+SetDateTime()</text>
<text text-anchor="start" x="299.6965" y="-179" font-family="Helvetica,sans-Serif" font-size="10.00" fill="#000000">+SetPriority()</text>
<text text-anchor="start" x="299.271" y="-167" font-family="Helvetica,sans-Serif" font-size="10.00" fill="#000000">SetLocation()</text>
<polygon fill="none" stroke="#000000" points="284,-122 284,-154 374,-154 374,-122 284,-122"/>
<text text-anchor="start" x="325.671" y="-135" font-family="Helvetica,sans-Serif" font-size="10.00" fill="#000000">()</text>
</g>
<!-- A1&#45;&gt;A3 -->
<g id="edge3" class="edge">
<title>A1&#45;&gt;A3</title>
<path fill="none" stroke="#000000" stroke-dasharray="5,2" d="M404.1796,-327.1202C394.013,-310.4706 383.6661,-293.5257 374.0312,-277.7467"/>
<polygon fill="#000000" stroke="#000000" points="409.4749,-335.7922 400.4228,-329.6026 406.8691,-331.5248 404.2634,-327.2575 404.2634,-327.2575 404.2634,-327.2575 406.8691,-331.5248 408.104,-324.9123 409.4749,-335.7922 409.4749,-335.7922"/>
</g>
<!-- A4 -->
<g id="node5" class="node">
<title>A4</title>
<polygon fill="none" stroke="#000000" points="581,-242 581,-274 671,-274 671,-242 581,-242"/>
<text text-anchor="start" x="610.2975" y="-255" font-family="Helvetica,sans-Serif" font-size="10.00" fill="#000000">+Event</text>
<polygon fill="none" stroke="#000000" points="581,-222 581,-242 671,-242 671,-222 581,-222"/>
<polygon fill="none" stroke="#000000" points="581,-166 581,-222 671,-222 671,-166 581,-166"/>
<text text-anchor="start" x="598.915" y="-203" font-family="Helvetica,sans-Serif" font-size="10.00" fill="#000000">+SetName()</text>
<text text-anchor="start" x="590.582" y="-191" font-family="Helvetica,sans-Serif" font-size="10.00" fill="#000000">+SetDateTime()</text>
<text text-anchor="start" x="596.6965" y="-179" font-family="Helvetica,sans-Serif" font-size="10.00" fill="#000000">+SetPriority()</text>
<polygon fill="none" stroke="#000000" points="581,-134 581,-166 671,-166 671,-134 581,-134"/>
<text text-anchor="start" x="622.671" y="-147" font-family="Helvetica,sans-Serif" font-size="10.00" fill="#000000">()</text>
</g>
<!-- A1&#45;&gt;A4 -->
<g id="edge4" class="edge">
<title>A1&#45;&gt;A4</title>
<path fill="none" stroke="#000000" stroke-dasharray="5,2" d="M539.1262,-327.481C553.328,-307.2949 567.8463,-286.6588 580.8474,-268.1792"/>
<polygon fill="#000000" stroke="#000000" points="533.279,-335.7922 535.3526,-325.0241 536.156,-331.7028 539.033,-327.6134 539.033,-327.6134 539.033,-327.6134 536.156,-331.7028 542.7135,-330.2028 533.279,-335.7922 533.279,-335.7922"/>
</g>
<!-- A16 -->
<g id="node17" class="node">
<title>A16</title>
<polygon fill="none" stroke="#000000" points="393,-220 393,-252 554,-252 554,-220 393,-220"/>
<text text-anchor="start" x="449.739" y="-233" font-family="Helvetica,sans-Serif" font-size="10.00" fill="#000000">+Schedule</text>
<polygon fill="none" stroke="#000000" points="393,-176 393,-220 554,-220 554,-176 393,-176"/>
<text text-anchor="start" x="428.629" y="-201" font-family="Helvetica,sans-Serif" font-size="10.00" fill="#000000">+deadline:DateTime</text>
<text text-anchor="start" x="402.5105" y="-189" font-family="Helvetica,sans-Serif" font-size="10.00" fill="#000000">+dayOfWeek:List&lt;DayOfWeek&gt;</text>
<polygon fill="none" stroke="#000000" points="393,-156 393,-176 554,-176 554,-156 393,-156"/>
</g>
<!-- A1&#45;&gt;A16 -->
<g id="edge16" class="edge">
<title>A1&#45;&gt;A16</title>
<path fill="none" stroke="#000000" d="M469.5011,-335.7922C470.2664,-306.9664 471.0762,-276.4619 471.7239,-252.0681"/>
<text text-anchor="middle" x="479.6922" y="-267.4122" font-family="Helvetica,sans-Serif" font-size="10.00" fill="#000000">1</text>
<text text-anchor="middle" x="461.5328" y="-314.4481" font-family="Helvetica,sans-Serif" font-size="10.00" fill="#000000">1</text>
</g>
<!-- A8 -->
<g id="node9" class="node">
<title>A8</title>
<polygon fill="none" stroke="#000000" points="2,-40 2,-72 53,-72 53,-40 2,-40"/>
<text text-anchor="start" x="11.802" y="-53" font-family="Helvetica,sans-Serif" font-size="10.00" fill="#000000">+Exam</text>
<polygon fill="none" stroke="#000000" points="2,-20 2,-40 53,-40 53,-20 2,-20"/>
<polygon fill="none" stroke="#000000" points="2,0 2,-20 53,-20 53,0 2,0"/>
</g>
<!-- A2&#45;&gt;A8 -->
<g id="edge8" class="edge">
<title>A2&#45;&gt;A8</title>
<path fill="none" stroke="#000000" stroke-dasharray="5,2" d="M70.3031,-124.7185C61.3071,-106.2878 52.1629,-87.5532 44.6099,-72.0789"/>
<polygon fill="#000000" stroke="#000000" points="74.6997,-133.7263 66.2693,-126.7135 72.5065,-129.233 70.3133,-124.7396 70.3133,-124.7396 70.3133,-124.7396 72.5065,-129.233 74.3573,-122.7657 74.6997,-133.7263 74.6997,-133.7263"/>
</g>
<!-- A9 -->
<g id="node10" class="node">
<title>A9</title>
<polygon fill="none" stroke="#000000" points="73,-40 73,-72 146,-72 146,-40 73,-40"/>
<text text-anchor="start" x="82.694" y="-53" font-family="Helvetica,sans-Serif" font-size="10.00" fill="#000000">+Homework</text>
<polygon fill="none" stroke="#000000" points="73,-20 73,-40 146,-40 146,-20 73,-20"/>
<polygon fill="none" stroke="#000000" points="73,0 73,-20 146,-20 146,0 73,0"/>
</g>
<!-- A2&#45;&gt;A9 -->
<g id="edge9" class="edge">
<title>A2&#45;&gt;A9</title>
<path fill="none" stroke="#000000" stroke-dasharray="5,2" d="M109,-123.7129C109,-105.6076 109,-87.2718 109,-72.0789"/>
<polygon fill="#000000" stroke="#000000" points="109,-133.7263 104.5001,-123.7263 109,-128.7263 109.0001,-123.7263 109.0001,-123.7263 109.0001,-123.7263 109,-128.7263 113.5001,-123.7263 109,-133.7263 109,-133.7263"/>
</g>
<!-- A10 -->
<g id="node11" class="node">
<title>A10</title>
<polygon fill="none" stroke="#000000" points="164,-40 164,-72 267,-72 267,-40 164,-40"/>
<text text-anchor="start" x="173.962" y="-53" font-family="Helvetica,sans-Serif" font-size="10.00" fill="#000000">+TeacherMeetings</text>
<polygon fill="none" stroke="#000000" points="164,-20 164,-40 267,-40 267,-20 164,-20"/>
<polygon fill="none" stroke="#000000" points="164,0 164,-20 267,-20 267,0 164,0"/>
</g>
<!-- A3&#45;&gt;A10 -->
<g id="edge10" class="edge">
<title>A3&#45;&gt;A10</title>
<path fill="none" stroke="#000000" stroke-dasharray="5,2" d="M278.2504,-129.2111C264.8781,-109.5045 251.0413,-89.1135 239.7319,-72.447"/>
<polygon fill="#000000" stroke="#000000" points="283.9442,-137.602 274.6055,-131.854 281.1367,-133.4646 278.3291,-129.3272 278.3291,-129.3272 278.3291,-129.3272 281.1367,-133.4646 282.0528,-126.8004 283.9442,-137.602 283.9442,-137.602"/>
</g>
<!-- A11 -->
<g id="node12" class="node">
<title>A11</title>
<polygon fill="none" stroke="#000000" points="285,-40 285,-72 374,-72 374,-40 285,-40"/>
<text text-anchor="start" x="294.9065" y="-53" font-family="Helvetica,sans-Serif" font-size="10.00" fill="#000000">+GroupMeeting</text>
<polygon fill="none" stroke="#000000" points="285,-20 285,-40 374,-40 374,-20 285,-20"/>
<polygon fill="none" stroke="#000000" points="285,0 285,-20 374,-20 374,0 285,0"/>
</g>
<!-- A3&#45;&gt;A11 -->
<g id="edge11" class="edge">
<title>A3&#45;&gt;A11</title>
<path fill="none" stroke="#000000" stroke-dasharray="5,2" d="M329,-111.7293C329,-97.7115 329,-84.004 329,-72.1886"/>
<polygon fill="#000000" stroke="#000000" points="329,-121.9686 324.5001,-111.9685 329,-116.9686 329.0001,-111.9686 329.0001,-111.9686 329.0001,-111.9686 329,-116.9686 333.5001,-111.9686 329,-121.9686 329,-121.9686"/>
</g>
<!-- A12 -->
<g id="node13" class="node">
<title>A12</title>
<polygon fill="none" stroke="#000000" points="392,-40 392,-72 473,-72 473,-40 392,-40"/>
<text text-anchor="start" x="401.521" y="-53" font-family="Helvetica,sans-Serif" font-size="10.00" fill="#000000">+ClubMeeting</text>
<polygon fill="none" stroke="#000000" points="392,-20 392,-40 473,-40 473,-20 392,-20"/>
<polygon fill="none" stroke="#000000" points="392,0 392,-20 473,-20 473,0 392,0"/>
</g>
<!-- A3&#45;&gt;A12 -->
<g id="edge12" class="edge">
<title>A3&#45;&gt;A12</title>
<path fill="none" stroke="#000000" stroke-dasharray="5,2" d="M379.6883,-121.3239C390.2528,-104.0925 400.8629,-86.7867 409.7397,-72.308"/>
<polygon fill="#000000" stroke="#000000" points="374.1773,-130.3128 375.5678,-119.4354 376.7907,-126.0501 379.4042,-121.7875 379.4042,-121.7875 379.4042,-121.7875 376.7907,-126.0501 383.2405,-124.1395 374.1773,-130.3128 374.1773,-130.3128"/>
</g>
<!-- A13 -->
<g id="node14" class="node">
<title>A13</title>
<polygon fill="none" stroke="#000000" points="491,-40 491,-72 574,-72 574,-40 491,-40"/>
<text text-anchor="start" x="500.685" y="-53" font-family="Helvetica,sans-Serif" font-size="10.00" fill="#000000">+SocialEvents</text>
<polygon fill="none" stroke="#000000" points="491,-20 491,-40 574,-40 574,-20 491,-20"/>
<polygon fill="none" stroke="#000000" points="491,0 491,-20 574,-20 574,0 491,0"/>
</g>
<!-- A4&#45;&gt;A13 -->
<g id="edge13" class="edge">
<title>A4&#45;&gt;A13</title>
<path fill="none" stroke="#000000" stroke-dasharray="5,2" d="M581.7807,-124.9698C571.423,-106.4582 560.8846,-87.6235 552.187,-72.0789"/>
<polygon fill="#000000" stroke="#000000" points="586.6802,-133.7263 577.8702,-127.1968 584.2387,-129.3629 581.7973,-124.9995 581.7973,-124.9995 581.7973,-124.9995 584.2387,-129.3629 585.7243,-122.8021 586.6802,-133.7263 586.6802,-133.7263"/>
</g>
<!-- A14 -->
<g id="node15" class="node">
<title>A14</title>
<polygon fill="none" stroke="#000000" points="592,-40 592,-72 678,-72 678,-40 592,-40"/>
<text text-anchor="start" x="601.515" y="-53" font-family="Helvetica,sans-Serif" font-size="10.00" fill="#000000">+SchoolEvents</text>
<polygon fill="none" stroke="#000000" points="592,-20 592,-40 678,-40 678,-20 592,-20"/>
<polygon fill="none" stroke="#000000" points="592,0 592,-20 678,-20 678,0 592,0"/>
</g>
<!-- A4&#45;&gt;A14 -->
<g id="edge14" class="edge">
<title>A4&#45;&gt;A14</title>
<path fill="none" stroke="#000000" stroke-dasharray="5,2" d="M630.3011,-123.7129C631.271,-105.6076 632.2533,-87.2718 633.0672,-72.0789"/>
<polygon fill="#000000" stroke="#000000" points="629.7647,-133.7263 625.8061,-123.4998 630.0322,-128.7335 630.2997,-123.7406 630.2997,-123.7406 630.2997,-123.7406 630.0322,-128.7335 634.7933,-123.9814 629.7647,-133.7263 629.7647,-133.7263"/>
</g>
<!-- A15 -->
<g id="node16" class="node">
<title>A15</title>
<polygon fill="none" stroke="#000000" points="696,-40 696,-72 772,-72 772,-40 696,-40"/>
<text text-anchor="start" x="705.5195" y="-53" font-family="Helvetica,sans-Serif" font-size="10.00" fill="#000000">+ClubEvents</text>
<polygon fill="none" stroke="#000000" points="696,-20 696,-40 772,-40 772,-20 696,-20"/>
<polygon fill="none" stroke="#000000" points="696,0 696,-20 772,-20 772,0 696,0"/>
</g>
<!-- A4&#45;&gt;A15 -->
<g id="edge15" class="edge">
<title>A4&#45;&gt;A15</title>
<path fill="none" stroke="#000000" stroke-dasharray="5,2" d="M676.6436,-125.2211C688.5958,-106.6287 700.7682,-87.6939 710.8064,-72.0789"/>
<polygon fill="#000000" stroke="#000000" points="671.176,-133.7263 672.7983,-122.8811 673.8798,-129.5204 676.5836,-125.3145 676.5836,-125.3145 676.5836,-125.3145 673.8798,-129.5204 680.3689,-127.7479 671.176,-133.7263 671.176,-133.7263"/>
</g>
<!-- A5 -->
<g id="node6" class="node">
<title>A5</title>
<polygon fill="none" stroke="#000000" points="290,-440 290,-472 369,-472 369,-440 290,-440"/>
<text text-anchor="start" x="304.6305" y="-453" font-family="Helvetica,sans-Serif" font-size="10.00" fill="#000000">+I:IMeeting</text>
<polygon fill="none" stroke="#000000" points="290,-420 290,-440 369,-440 369,-420 290,-420"/>
<polygon fill="none" stroke="#000000" points="290,-388 290,-420 369,-420 369,-388 290,-388"/>
<text text-anchor="start" x="299.771" y="-401" font-family="Helvetica,sans-Serif" font-size="10.00" fill="#000000">SetLocation()</text>
</g>
<!-- A5&#45;&gt;A3 -->
<g id="edge5" class="edge">
<title>A5&#45;&gt;A3</title>
<path fill="none" stroke="#000000" d="M329,-377.708C329,-350.589 329,-316.8354 329,-286.3136"/>
<polygon fill="none" stroke="#000000" points="325.5001,-377.7562 329,-387.7562 332.5001,-377.7563 325.5001,-377.7562"/>
</g>
<!-- A6 -->
<g id="node7" class="node">
<title>A6</title>
<polygon fill="none" stroke="#000000" points="149.6288,-448 68.3712,-448 68.3712,-412 149.6288,-412 149.6288,-448"/>
<text text-anchor="middle" x="109" y="-427" font-family="Helvetica,sans-Serif" font-size="10.00" fill="#000000">+I:IDeadline</text>
</g>
<!-- A6&#45;&gt;A2 -->
<g id="edge6" class="edge">
<title>A6&#45;&gt;A2</title>
<path fill="none" stroke="#000000" d="M109,-401.5529C109,-369.729 109,-317.0044 109,-274.0258"/>
<polygon fill="none" stroke="#000000" points="105.5001,-401.8875 109,-411.8875 112.5001,-401.8875 105.5001,-401.8875"/>
</g>
<!-- A7 -->
<g id="node8" class="node">
<title>A7</title>
<polygon fill="none" stroke="#000000" points="659.7425,-448 592.2575,-448 592.2575,-412 659.7425,-412 659.7425,-448"/>
<text text-anchor="middle" x="626" y="-427" font-family="Helvetica,sans-Serif" font-size="10.00" fill="#000000">+I:IEvent</text>
</g>
<!-- A7&#45;&gt;A4 -->
<g id="edge7" class="edge">
<title>A7&#45;&gt;A4</title>
<path fill="none" stroke="#000000" d="M626,-401.5529C626,-369.729 626,-317.0044 626,-274.0258"/>
<polygon fill="none" stroke="#000000" points="622.5001,-401.8875 626,-411.8875 629.5001,-401.8875 622.5001,-401.8875"/>
</g>
</g>
</svg>
